<svg width="25" height="25" viewBox="0 0 25 25" fill="none" xmlns="http://www.w3.org/2000/svg">
<rect width="25" height="25" fill="#E5E5E5"/>
<g id="Desktop" clip-path="url(#clip0_0_1)">
<rect width="1512" height="2930" transform="translate(-1257 -2734)" fill="white"/>
<rect id="Rectangle 6" width="1512" height="285" transform="matrix(-1 0 0 1 255 -89)" fill="black"/>
<g id="FB">
<circle id="Ellipse 4" cx="12.5" cy="12.5" r="12.5" fill="white"/>
<path id="Vector" d="M16.25 5H14C13.0054 5 12.0516 5.39509 11.3483 6.09835C10.6451 6.80161 10.25 7.75544 10.25 8.75V11H8V14H10.25V20H13.25V14H15.5L16.25 11H13.25V8.75C13.25 8.55109 13.329 8.36032 13.4697 8.21967C13.6103 8.07902 13.8011 8 14 8H16.25V5Z" fill="black"/>
</g>
</g>
<defs>
<clipPath id="clip0_0_1">
<rect width="1512" height="2930" fill="white" transform="translate(-1257 -2734)"/>
</clipPath>
</defs>
</svg>
